<svg width="133" height="140" xmlns="http://www.w3.org/2000/svg" xmlns:xlink="http://www.w3.org/1999/xlink" overflow="hidden"><defs><linearGradient x1="621" y1="350" x2="749" y2="350" gradientUnits="userSpaceOnUse" spreadMethod="reflect" id="fill0"><stop offset="0" stop-color="#F2CC0C"/><stop offset="0.5" stop-color="#F8B21E"/><stop offset="1" stop-color="#FF9830"/></linearGradient></defs><g transform="translate(-617 -276)"><path d="M658.673 409.984 652.166 409.984C651.268 409.984 650.54 409.253 650.54 408.351L650.54 357.576C650.54 356.674 651.268 355.943 652.166 355.943L658.673 355.943C659.571 355.943 660.3 356.674 660.3 357.576L660.3 408.351C660.3 409.253 659.571 409.984 658.673 409.984ZM643.919 390.392 637.413 390.392C636.514 390.392 635.786 391.123 635.786 392.025L635.786 408.351C635.786 409.253 636.514 409.984 637.413 409.984L643.919 409.984C644.818 409.984 645.546 409.253 645.546 408.351L645.546 392.025C645.537 391.129 644.811 390.408 643.919 390.408ZM673.426 305.984 666.92 305.984C666.022 305.984 665.293 306.715 665.293 307.616L665.293 408.351C665.293 409.253 666.022 409.984 666.92 409.984L673.426 409.984C674.325 409.984 675.053 409.253 675.053 408.351L675.053 307.616C675.053 306.715 674.325 305.984 673.426 305.984ZM688.18 290 681.674 290C680.775 290 680.047 290.731 680.047 291.633L680.047 408.351C680.047 409.253 680.775 409.984 681.674 409.984L688.18 409.984C689.078 409.984 689.807 409.253 689.807 408.351L689.807 291.633C689.807 290.731 689.078 290 688.18 290ZM702.934 305.984 696.427 305.984C695.529 305.984 694.801 306.715 694.801 307.616L694.801 408.351C694.801 409.253 695.529 409.984 696.427 409.984L702.934 409.984C703.832 409.984 704.56 409.253 704.56 408.351L704.56 307.616C704.56 306.715 703.832 305.984 702.934 305.984ZM717.687 355.943 711.181 355.943C710.282 355.943 709.554 356.674 709.554 357.576L709.554 408.351C709.554 409.253 710.282 409.984 711.181 409.984L717.687 409.984C718.586 409.984 719.314 409.253 719.314 408.351L719.314 357.576C719.314 356.674 718.586 355.943 717.687 355.943ZM732.441 390.408 725.934 390.408C725.036 390.408 724.308 391.139 724.308 392.041L724.308 408.367C724.308 409.269 725.036 410 725.934 410L732.441 410C733.339 410 734.068 409.269 734.068 408.367L734.068 392.041C734.068 391.139 733.339 390.408 732.441 390.408ZM747.373 398.261 740.867 398.261C739.969 398.261 739.24 398.992 739.24 399.894L739.24 408.351C739.24 409.253 739.969 409.984 740.867 409.984L747.373 409.984C748.272 409.984 749 409.253 749 408.351L749 399.894C749 398.992 748.272 398.261 747.373 398.261ZM629.133 398.261 622.627 398.261C621.728 398.261 621 398.992 621 399.894L621 408.351C621 409.253 621.728 409.984 622.627 409.984L629.133 409.984C630.031 409.984 630.76 409.253 630.76 408.351L630.76 399.894C630.76 398.992 630.031 398.261 629.133 398.261Z" fill="url(#fill0)" fill-rule="evenodd"/><path d="M618 392 618 385.593C619.298 385.604 620.589 385.404 621.817 385L624 391.055C622.069 391.689 620.041 392.008 618 392Z" fill="#3865AB" fill-rule="evenodd"/><path d="M631.887 385 627 380.621C628.957 378.374 630.581 375.858 631.822 373.15L637.703 375.95C636.215 379.233 634.256 382.282 631.887 385ZM732.161 384.886C729.81 382.162 727.862 379.114 726.378 375.836L732.276 373.036C733.487 375.743 735.078 378.264 737 380.524ZM640.929 367.974 634.722 365.874C635.651 363.172 636.547 360.161 637.475 356.645L643.78 358.273C642.803 361.968 641.874 365.142 640.897 367.974ZM723.234 367.86C722.273 365.028 721.328 361.854 720.366 358.191L726.671 356.564C727.6 360.079 728.496 363.075 729.408 365.793ZM645.768 350.248 639.43 348.767C640.164 345.625 640.864 342.419 641.581 339.179L647.951 340.596C647.299 343.851 646.501 347.09 645.768 350.248ZM718.346 350.118C717.613 346.992 716.896 343.737 716.163 340.482L722.533 339.065C723.25 342.321 723.967 345.576 724.684 348.653ZM649.743 332.587 643.389 331.138C644.236 327.395 645.018 324.318 645.703 321.47L652.024 323.097C651.307 325.832 650.557 328.892 649.743 332.587ZM714.371 332.457C713.508 328.68 712.742 325.669 712.09 322.951L718.411 321.323C719.112 324.09 719.861 327.167 720.725 330.992ZM654.093 315.284 647.853 313.429C648.912 309.864 649.971 306.739 651.111 303.841L657.188 306.185C656.178 308.92 655.168 311.899 654.158 315.284ZM709.875 315.138C708.865 311.768 707.871 308.806 706.796 306.055L712.872 303.695C713.996 306.609 715.072 309.75 716.131 313.282ZM660.43 299.007 654.63 296.028C656.211 292.887 658.122 289.925 660.332 287.19L665.383 291.357C663.464 293.724 661.804 296.288 660.43 299.007ZM703.651 298.893C702.27 296.18 700.605 293.621 698.682 291.259L703.668 287.076C705.906 289.792 707.84 292.745 709.435 295.882ZM670.694 286.49 667.093 281.069C670.199 278.979 673.724 277.591 677.422 277L678.448 283.511C675.674 283.917 673.025 284.934 670.694 286.49ZM693.339 286.49C691.006 284.937 688.357 283.92 685.584 283.511L686.562 277C690.263 277.557 693.798 278.913 696.923 280.972Z" fill="#3865AB" fill-rule="evenodd"/><path d="M746 392C743.959 392.008 741.931 391.689 740 391.055L742.167 385C743.403 385.395 744.697 385.595 746 385.593Z" fill="#3865AB" fill-rule="evenodd"/><path d="M719 277 719 409.854" stroke="#C4162A" stroke-width="10" stroke-miterlimit="8" fill="none" fill-rule="evenodd"/><path d="M651 277 651 409.854" stroke="#C4162A" stroke-width="10" stroke-miterlimit="8" fill="none" fill-rule="evenodd"/><rect x="714.5" y="277.5" width="35" height="133" stroke="#C4162A" stroke-width="0" stroke-miterlimit="8" stroke-opacity="0.101961" fill="#C4162A" fill-opacity="0.14902"/><rect x="618.5" y="277.5" width="35" height="133" stroke="#C4162A" stroke-width="0" stroke-miterlimit="8" stroke-opacity="0.101961" fill="#C4162A" fill-opacity="0.14902"/></g></svg>